<?xml version="1.0" encoding="UTF-8"?>
<svg xmlns="http://www.w3.org/2000/svg" xmlns:xlink="http://www.w3.org/1999/xlink" width="1151.9765625" height="1445.63125"><defs><style type="text/css"><![CDATA[@import url("https://atlas.mindmup.com/_resources/16/fonts.css")]]></style></defs><rect width="100%" height="100%" fill="#FFFFFF"/><g transform="translate(1259,1619.6)" style="fill:none;"><g transform="translate(-1055,-1469.6)"><path d="M316,770Q316,-20 51,14" stroke="#333399" stroke-width="1"/></g><g transform="translate(-819,-1407)"><path d="M80,707Q80,-20 271,14" stroke="#333399" stroke-width="1"/></g><g transform="translate(-977.0078125,-717)"><path d="M238,17Q238,426 56,392" stroke="#333399" stroke-width="1"/></g><g transform="translate(-1022.0078125,-717)"><path d="M283,17Q283,211 56,177" stroke="#333399" stroke-width="1"/></g><g transform="translate(-1087,-909.9609375)"><path d="M348,210Q348,-20 78,14" stroke="#333399" stroke-width="1"/></g><g transform="translate(-819,-759.9609375)"><path d="M80,60Q80,-20 338,14" stroke="#333399" stroke-width="1"/></g><g transform="translate(-819,-1009.96875)"><path d="M80,310Q80,-20 302,14" stroke="#333399" stroke-width="1"/></g><g transform="translate(-1015.4000000000001,-1207.2)"><path d="M276,507Q276,-19 62,14" stroke="#333399" stroke-width="1"/></g><g transform="translate(-819,-717)"><path d="M80,17Q80,259 266,225" stroke="#FF00FF" stroke-width="1"/></g><g transform="translate(-819,-717)"><path d="M80,17Q80,511 410,477" stroke="#FF00FF" stroke-width="1"/></g><g transform="translate(-1107,-1589.6)"><path d="M78,134Q78,-20 32,14" stroke="#00FF00" stroke-width="1"/></g><g transform="translate(-1164,-1541.6)"><path d="M135,86Q135,-20 89,14" stroke="#00FF00" stroke-width="1"/></g><g transform="translate(-1169,-1493.6)"><path d="M124,38Q124,-10 94,14" stroke="#00FF00" stroke-width="1"/></g><g transform="translate(-1097,-1469.6)"><path d="M52,14Q52,62 22,38" stroke="#00FF00" stroke-width="1"/></g><g transform="translate(-1133,-1469.6)"><path d="M104,14Q104,119 58,86" stroke="#00FF00" stroke-width="1"/></g><g transform="translate(-1129,-1469.6)"><path d="M100,14Q100,167 54,134" stroke="#00FF00" stroke-width="1"/></g><g transform="translate(-548,-1574)"><path d="M25,181Q25,-20 124,14" stroke="#00FF00" stroke-width="1"/></g><g transform="translate(-548,-1511.9765625)"><path d="M25,119Q25,-20 213,14" stroke="#00FF00" stroke-width="1"/></g><g transform="translate(-548,-1454)"><path d="M25,61Q25,-20 133,14" stroke="#00FF00" stroke-width="1"/></g><g transform="translate(-548,-1407)"><path d="M40,14Q40,28 131,21" stroke="#00FF00" stroke-width="1"/></g><g transform="translate(-548,-1407)"><path d="M25,14Q25,113 133,79" stroke="#00FF00" stroke-width="1"/></g><g transform="translate(-548,-1407)"><path d="M25,14Q25,181 129,147" stroke="#00FF00" stroke-width="1"/></g><g transform="translate(-548,-1407)"><path d="M25,14Q25,253 117,219" stroke="#00FF00" stroke-width="1"/></g><g transform="translate(-1088.0078125,-362.9765625)"><path d="M121,38Q121,-10 91,14" stroke="#00FF00" stroke-width="1"/></g><g transform="translate(-1094.0078125,-338.9765625)"><path d="M127,14Q127,62 97,38" stroke="#00FF00" stroke-width="1"/></g><g transform="translate(-1134.0078125,-601.96875)"><path d="M140,62Q140,-20 92,14" stroke="#00FF00" stroke-width="1"/></g><g transform="translate(-1140.0078125,-553.96875)"><path d="M128,14L98,14" stroke="#00FF00" stroke-width="1"/></g><g transform="translate(-1153.0078125,-553.96875)"><path d="M159,14Q159,96 111,62" stroke="#00FF00" stroke-width="1"/></g><g transform="translate(-1143,-1053.9609375)"><path d="M95,158Q95,-20 36,14" stroke="#00FF00" stroke-width="1"/></g><g transform="translate(-1225,-1005.9609375)"><path d="M177,110Q177,-20 118,14" stroke="#00FF00" stroke-width="1"/></g><g transform="translate(-1201,-957.9609375)"><path d="M153,62Q153,-20 94,14" stroke="#00FF00" stroke-width="1"/></g><g transform="translate(-1129,-909.9609375)"><path d="M52,14L22,14" stroke="#00FF00" stroke-width="1"/></g><g transform="translate(-1165,-909.9609375)"><path d="M117,14Q117,96 58,62" stroke="#00FF00" stroke-width="1"/></g><g transform="translate(-1161,-909.9609375)"><path d="M113,14Q113,144 54,110" stroke="#00FF00" stroke-width="1"/></g><g transform="translate(-1229,-909.9609375)"><path d="M181,14Q181,192 122,158" stroke="#00FF00" stroke-width="1"/></g><g transform="translate(-481.015625,-843.9296875)"><path d="M40,98Q40,-20 230,14" stroke="#00FF00" stroke-width="1"/></g><g transform="translate(-481.015625,-763.9609375)"><path d="M70,18Q70,10 100,14" stroke="#00FF00" stroke-width="1"/></g><g transform="translate(-481.015625,-759.9609375)"><path d="M40,14Q40,92 100,58" stroke="#00FF00" stroke-width="1"/></g><g transform="translate(-517.015625,-1081.96875)"><path d="M18,86Q18,-20 57,14" stroke="#00FF00" stroke-width="1"/></g><g transform="translate(-517.015625,-1033.96875)"><path d="M27,38Q27,-10 57,14" stroke="#00FF00" stroke-width="1"/></g><g transform="translate(-517.015625,-1009.96875)"><path d="M27,14Q27,62 57,38" stroke="#00FF00" stroke-width="1"/></g><g transform="translate(-517.015625,-1009.96875)"><path d="M18,14Q18,120 57,86" stroke="#00FF00" stroke-width="1"/></g><g transform="translate(-1134.4,-1231.2)"><path d="M129,38Q129,-10 99,14" stroke="#00FF00" stroke-width="1"/></g><g transform="translate(-1140.4,-1207.2)"><path d="M135,14Q135,62 105,38" stroke="#00FF00" stroke-width="1"/></g><g transform="translate(-553,-615.6666259765625)"><path d="M19,124Q19,-20 141,14" stroke="#FF9900" stroke-width="1"/></g><g transform="translate(-553,-546.6666259765625)"><path d="M19,55Q19,-20 139,14" stroke="#FF9900" stroke-width="1"/></g><g transform="translate(-553,-506)"><path d="M19,14Q19,89 122,55" stroke="#FF9900" stroke-width="1"/></g><g transform="translate(-553,-506)"><path d="M19,14Q19,151 111,117" stroke="#FF9900" stroke-width="1"/></g><g transform="translate(-553,-506)"><path d="M19,14Q19,218 94,184" stroke="#FF9900" stroke-width="1"/></g><g transform="translate(-409.015625,-308.30206298828125)"><path d="M36,68Q36,-19 161,14" stroke="#FF9900" stroke-width="1"/></g><g transform="translate(-409.015625,-253.96875)"><path d="M63,14Q63,58 93,36" stroke="#FF9900" stroke-width="1"/></g><g transform="translate(-1143,-1053.9609375)"><path d="M36,14L683,34" stroke-dasharray="4, 4" stroke="#FF0000" stroke-width="1"/><path d="M670,29L683,34L670,38Z" fill="#FF0000" stroke="#FF0000" stroke-width="1"/></g><g transform="translate(-1229,-765.9609375)"><path d="M141,164L122,14" stroke-dasharray="4, 4" stroke="#FF0000" stroke-width="1"/><path d="M119,28L122,14L128,26Z" fill="#FF0000" stroke="#FF0000" stroke-width="1"/></g><g transform="translate(-414,-546.6666259765625)"><path d="M212,238L124,14" stroke-dasharray="4, 4" stroke="#FF0000" stroke-width="1"/><path d="M124,28L124,14L133,24Z" fill="#FF0000" stroke="#FF0000" stroke-width="1"/></g><g transform="translate(-1107,-1589.6)"><path d="M32,14L692,150" stroke-dasharray="4, 4" stroke="#FF0000" stroke-width="1"/><path d="M680,142L692,150L678,152Z" fill="#FF0000" stroke="#FF0000" stroke-width="1"/></g><g transform="translate(-1134.4,-1400)"><path d="M99,183L717,14" stroke-dasharray="4, 4" stroke="#FF0000" stroke-width="1"/><path d="M703,13L717,14L706,22Z" fill="#FF0000" stroke="#FF0000" stroke-width="1"/></g><g transform="translate(-460.015625,-985.96875)"><path d="M147,14L209,156" stroke-dasharray="4, 4" stroke="#FF0000" stroke-width="1"/><path d="M208,142L209,156L199,146Z" fill="#FF0000" stroke="#FF0000" stroke-width="1"/></g><g transform="translate(-1134.0078125,-1342)"><path d="M92,754L719,14" stroke-dasharray="4, 4" stroke="#FF0000" stroke-width="1"/><path d="M707,21L719,14L714,27Z" fill="#FF0000" stroke="#FF0000" stroke-width="1"/></g><g transform="translate(-1153.0078125,-505.96875)"><path d="M111,143L56,28" stroke-dasharray="4, 4" stroke="#FF0000" stroke-width="1"/><path d="M57,42L56,28L66,38Z" fill="#FF0000" stroke="#FF0000" stroke-width="1"/></g><g transform="translate(-335,-1511.9765625)"><path d="M141,668L80,28" stroke-dasharray="4, 4" stroke="#FF0000" stroke-width="1"/><path d="M76,42L80,28L86,41Z" fill="#FF0000" stroke="#FF0000" stroke-width="1"/></g><g transform="translate(-819 -717)"><rect x="0" y="0" width="159" height="33" rx="10" ry="10" style="fill:#3366FF;stroke:#707070;stroke-width:1px;"/><text font-family="NotoSans, Arial, sans-serif" font-size="15" font-weight="bold" lengthAdjust="spacingAndGlyphs" style="fill:#EEEEEE;"><tspan y="20" x="80" text-anchor="middle" textLength="32">idns</tspan></text></g><g transform="translate(-1055 -1469.6)"><rect x="0" y="0" width="51" height="28" rx="10" ry="10" style="fill:#FFCC00;stroke:#707070;stroke-width:1px;"/><text font-family="NotoSans, Arial, sans-serif" font-size="12" font-weight="bold" lengthAdjust="spacingAndGlyphs" style="fill:#4F4F4F;"><tspan y="17" x="26" text-anchor="middle" textLength="36">dosen</tspan></text></g><g transform="translate(-548 -1407)"><rect x="0" y="0" width="50" height="28" rx="10" ry="10" style="fill:#FFCC00;stroke:#707070;stroke-width:1px;"/><text font-family="NotoSans, Arial, sans-serif" font-size="12" font-weight="bold" lengthAdjust="spacingAndGlyphs" style="fill:#4F4F4F;"><tspan y="17" x="25" text-anchor="middle" textLength="40">jadwal</tspan></text></g><g transform="translate(-977.0078125 -338.9765625)"><rect x="0" y="0" width="56" height="28" rx="10" ry="10" style="fill:#FFCC00;stroke:#707070;stroke-width:1px;"/><text font-family="NotoSans, Arial, sans-serif" font-size="12" font-weight="bold" lengthAdjust="spacingAndGlyphs" style="fill:#4F4F4F;"><tspan y="17" x="28" text-anchor="middle" textLength="46">jenjang</tspan></text></g><g transform="translate(-1022.0078125 -553.96875)"><rect x="0" y="0" width="56" height="28" rx="10" ry="10" style="fill:#FFCC00;stroke:#707070;stroke-width:1px;"/><text font-family="NotoSans, Arial, sans-serif" font-size="12" font-weight="bold" lengthAdjust="spacingAndGlyphs" style="fill:#4F4F4F;"><tspan y="17" x="28" text-anchor="middle" textLength="46">jurusan</tspan></text></g><g transform="translate(-1087 -909.9609375)"><rect x="0" y="0" width="78" height="28" rx="10" ry="10" style="fill:#FFCC00;stroke:#707070;stroke-width:1px;"/><text font-family="NotoSans, Arial, sans-serif" font-size="12" font-weight="bold" lengthAdjust="spacingAndGlyphs" style="fill:#4F4F4F;"><tspan y="17" x="39" text-anchor="middle" textLength="68">mahasiswa</tspan></text></g><g transform="translate(-481.015625 -759.9609375)"><rect x="0" y="0" width="80" height="28" rx="10" ry="10" style="fill:#FFCC00;stroke:#707070;stroke-width:1px;"/><text font-family="NotoSans, Arial, sans-serif" font-size="12" font-weight="bold" lengthAdjust="spacingAndGlyphs" style="fill:#4F4F4F;"><tspan y="17" x="40" text-anchor="middle" textLength="70">matakuliah</tspan></text></g><g transform="translate(-517.015625 -1009.96875)"><rect x="0" y="0" width="37" height="28" rx="10" ry="10" style="fill:#FFCC00;stroke:#707070;stroke-width:1px;"/><text font-family="NotoSans, Arial, sans-serif" font-size="12" font-weight="bold" lengthAdjust="spacingAndGlyphs" style="fill:#4F4F4F;"><tspan y="17" x="19" text-anchor="middle" textLength="27">nilai</tspan></text></g><g transform="translate(-1015.4000000000001 -1207.2)"><rect x="0" y="0" width="62" height="28" rx="10" ry="10" style="fill:#FFCC00;stroke:#707070;stroke-width:1px;"/><text font-family="NotoSans, Arial, sans-serif" font-size="12" font-weight="bold" lengthAdjust="spacingAndGlyphs" style="fill:#4F4F4F;"><tspan y="17" x="31" text-anchor="middle" textLength="52">ruangan</tspan></text></g><g transform="translate(-553 -506)"><rect x="0" y="0" width="37" height="28" rx="10" ry="10" style="fill:#CCFFFF;stroke:#707070;stroke-width:1px;"/><text font-family="NotoSans, Arial, sans-serif" font-size="12" font-weight="bold" lengthAdjust="spacingAndGlyphs" style="fill:#4F4F4F;"><tspan y="17" x="19" text-anchor="middle" textLength="27">user</tspan></text></g><g transform="translate(-409.015625 -253.96875)"><rect x="0" y="0" width="73" height="28" rx="10" ry="10" style="fill:#CCFFFF;stroke:#707070;stroke-width:1px;"/><text font-family="NotoSans, Arial, sans-serif" font-size="12" font-weight="bold" lengthAdjust="spacingAndGlyphs" style="fill:#4F4F4F;"><tspan y="17" x="37" text-anchor="middle" textLength="63">usergroup</tspan></text></g><g transform="translate(-1107 -1589.6)"><rect x="0" y="0" width="32" height="28" rx="10" ry="10" style="fill:#E0E0E0;stroke:#707070;stroke-width:1px;"/><text font-family="NotoSans, Arial, sans-serif" font-size="12" font-weight="bold" lengthAdjust="spacingAndGlyphs" style="fill:#4F4F4F;"><tspan y="17" x="16" text-anchor="middle" textLength="22">NIP</tspan></text></g><g transform="translate(-1164 -1541.6)"><rect x="0" y="0" width="89" height="28" rx="10" ry="10" style="fill:#E0E0E0;stroke:#707070;stroke-width:1px;"/><text font-family="NotoSans, Arial, sans-serif" font-size="12" font-weight="bold" lengthAdjust="spacingAndGlyphs" style="fill:#4F4F4F;"><tspan y="17" x="45" text-anchor="middle" textLength="79">Nama_Dosen</tspan></text></g><g transform="translate(-1169 -1493.6)"><rect x="0" y="0" width="94" height="28" rx="10" ry="10" style="fill:#E0E0E0;stroke:#707070;stroke-width:1px;"/><text font-family="NotoSans, Arial, sans-serif" font-size="12" font-weight="bold" lengthAdjust="spacingAndGlyphs" style="fill:#4F4F4F;"><tspan y="17" x="47" text-anchor="middle" textLength="84">Tanggal_Lahir</tspan></text></g><g transform="translate(-1097 -1445.6)"><rect x="0" y="0" width="22" height="28" rx="10" ry="10" style="fill:#E0E0E0;stroke:#707070;stroke-width:1px;"/><text font-family="NotoSans, Arial, sans-serif" font-size="12" font-weight="bold" lengthAdjust="spacingAndGlyphs" style="fill:#4F4F4F;"><tspan y="17" x="11" text-anchor="middle" textLength="12">JK</tspan></text></g><g transform="translate(-1133 -1397.6)"><rect x="0" y="0" width="58" height="28" rx="10" ry="10" style="fill:#E0E0E0;stroke:#707070;stroke-width:1px;"/><text font-family="NotoSans, Arial, sans-serif" font-size="12" font-weight="bold" lengthAdjust="spacingAndGlyphs" style="fill:#4F4F4F;"><tspan y="17" x="29" text-anchor="middle" textLength="48">No_Telp</tspan></text></g><g transform="translate(-1129 -1349.6)"><rect x="0" y="0" width="54" height="28" rx="10" ry="10" style="fill:#E0E0E0;stroke:#707070;stroke-width:1px;"/><text font-family="NotoSans, Arial, sans-serif" font-size="12" font-weight="bold" lengthAdjust="spacingAndGlyphs" style="fill:#4F4F4F;"><tspan y="17" x="27" text-anchor="middle" textLength="44">Alamat</tspan></text></g><g transform="translate(-424 -1574)"><rect x="0" y="0" width="68" height="28" rx="10" ry="10" style="fill:#E0E0E0;stroke:#707070;stroke-width:1px;"/><text font-family="NotoSans, Arial, sans-serif" font-size="12" font-weight="bold" lengthAdjust="spacingAndGlyphs" style="fill:#4F4F4F;"><tspan y="17" x="34" text-anchor="middle" textLength="58">Id_Jadwal</tspan></text></g><g transform="translate(-335 -1511.9765625)"><rect x="0" y="0" width="159" height="28" rx="10" ry="10" style="fill:#E0E0E0;stroke:#707070;stroke-width:1px;"/><text font-family="NotoSans, Arial, sans-serif" font-size="12" font-weight="bold" lengthAdjust="spacingAndGlyphs" style="fill:#4F4F4F;"><tspan y="17" x="80" text-anchor="middle" textLength="149">Kode_Matakuliah_Jadwal</tspan></text></g><g transform="translate(-415 -1454)"><rect x="0" y="0" width="77" height="28" rx="10" ry="10" style="fill:#E0E0E0;stroke:#707070;stroke-width:1px;"/><text font-family="NotoSans, Arial, sans-serif" font-size="12" font-weight="bold" lengthAdjust="spacingAndGlyphs" style="fill:#4F4F4F;"><tspan y="17" x="39" text-anchor="middle" textLength="67">NIP_Jadwal</tspan></text></g><g transform="translate(-417 -1400)"><rect x="0" y="0" width="144" height="28" rx="10" ry="10" style="fill:#E0E0E0;stroke:#707070;stroke-width:1px;"/><text font-family="NotoSans, Arial, sans-serif" font-size="12" font-weight="bold" lengthAdjust="spacingAndGlyphs" style="fill:#4F4F4F;"><tspan y="17" x="72" text-anchor="middle" textLength="134">Kode_Ruangan_Jadwal</tspan></text></g><g transform="translate(-415 -1342)"><rect x="0" y="0" width="137" height="28" rx="10" ry="10" style="fill:#E0E0E0;stroke:#707070;stroke-width:1px;"/><text font-family="NotoSans, Arial, sans-serif" font-size="12" font-weight="bold" lengthAdjust="spacingAndGlyphs" style="fill:#4F4F4F;"><tspan y="17" x="69" text-anchor="middle" textLength="127">Kode_Jurusan_Jadwal</tspan></text></g><g transform="translate(-419 -1274)"><rect x="0" y="0" width="36" height="28" rx="10" ry="10" style="fill:#E0E0E0;stroke:#707070;stroke-width:1px;"/><text font-family="NotoSans, Arial, sans-serif" font-size="12" font-weight="bold" lengthAdjust="spacingAndGlyphs" style="fill:#4F4F4F;"><tspan y="17" x="18" text-anchor="middle" textLength="26">Hari</tspan></text></g><g transform="translate(-431 -1202)"><rect x="0" y="0" width="34" height="28" rx="10" ry="10" style="fill:#E0E0E0;stroke:#707070;stroke-width:1px;"/><text font-family="NotoSans, Arial, sans-serif" font-size="12" font-weight="bold" lengthAdjust="spacingAndGlyphs" style="fill:#4F4F4F;"><tspan y="17" x="17" text-anchor="middle" textLength="24">Jam</tspan></text></g><g transform="translate(-1088.0078125 -362.9765625)"><rect x="0" y="0" width="91" height="28" rx="10" ry="10" style="fill:#E0E0E0;stroke:#707070;stroke-width:1px;"/><text font-family="NotoSans, Arial, sans-serif" font-size="12" font-weight="bold" lengthAdjust="spacingAndGlyphs" style="fill:#4F4F4F;"><tspan y="17" x="46" text-anchor="middle" textLength="81">Kode_Jenjang</tspan></text></g><g transform="translate(-1094.0078125 -314.9765625)"><rect x="0" y="0" width="97" height="28" rx="10" ry="10" style="fill:#E0E0E0;stroke:#707070;stroke-width:1px;"/><text font-family="NotoSans, Arial, sans-serif" font-size="12" font-weight="bold" lengthAdjust="spacingAndGlyphs" style="fill:#4F4F4F;"><tspan y="17" x="49" text-anchor="middle" textLength="87">Nama_Jenjang</tspan></text></g><g transform="translate(-1134.0078125 -601.96875)"><rect x="0" y="0" width="92" height="28" rx="10" ry="10" style="fill:#E0E0E0;stroke:#707070;stroke-width:1px;"/><text font-family="NotoSans, Arial, sans-serif" font-size="12" font-weight="bold" lengthAdjust="spacingAndGlyphs" style="fill:#4F4F4F;"><tspan y="17" x="46" text-anchor="middle" textLength="82">Kode_Jurusan</tspan></text></g><g transform="translate(-1140.0078125 -553.96875)"><rect x="0" y="0" width="98" height="28" rx="10" ry="10" style="fill:#E0E0E0;stroke:#707070;stroke-width:1px;"/><text font-family="NotoSans, Arial, sans-serif" font-size="12" font-weight="bold" lengthAdjust="spacingAndGlyphs" style="fill:#4F4F4F;"><tspan y="17" x="49" text-anchor="middle" textLength="88">Nama_Jurusan</tspan></text></g><g transform="translate(-1153.0078125 -505.96875)"><rect x="0" y="0" width="111" height="28" rx="10" ry="10" style="fill:#E0E0E0;stroke:#707070;stroke-width:1px;"/><text font-family="NotoSans, Arial, sans-serif" font-size="12" font-weight="bold" lengthAdjust="spacingAndGlyphs" style="fill:#4F4F4F;"><tspan y="17" x="56" text-anchor="middle" textLength="101">Kode_jenjang_Jrs</tspan></text></g><g transform="translate(-1143 -1053.9609375)"><rect x="0" y="0" width="36" height="28" rx="10" ry="10" style="fill:#E0E0E0;stroke:#707070;stroke-width:1px;"/><text font-family="NotoSans, Arial, sans-serif" font-size="12" font-weight="bold" lengthAdjust="spacingAndGlyphs" style="fill:#4F4F4F;"><tspan y="17" x="18" text-anchor="middle" textLength="26">NIM</tspan></text></g><g transform="translate(-1225 -1005.9609375)"><rect x="0" y="0" width="118" height="28" rx="10" ry="10" style="fill:#E0E0E0;stroke:#707070;stroke-width:1px;"/><text font-family="NotoSans, Arial, sans-serif" font-size="12" font-weight="bold" lengthAdjust="spacingAndGlyphs" style="fill:#4F4F4F;"><tspan y="17" x="59" text-anchor="middle" textLength="108">Nama_Mahasiswa</tspan></text></g><g transform="translate(-1201 -957.9609375)"><rect x="0" y="0" width="94" height="28" rx="10" ry="10" style="fill:#E0E0E0;stroke:#707070;stroke-width:1px;"/><text font-family="NotoSans, Arial, sans-serif" font-size="12" font-weight="bold" lengthAdjust="spacingAndGlyphs" style="fill:#4F4F4F;"><tspan y="17" x="47" text-anchor="middle" textLength="84">Tanggal_Lahir</tspan></text></g><g transform="translate(-1129 -909.9609375)"><rect x="0" y="0" width="22" height="28" rx="10" ry="10" style="fill:#E0E0E0;stroke:#707070;stroke-width:1px;"/><text font-family="NotoSans, Arial, sans-serif" font-size="12" font-weight="bold" lengthAdjust="spacingAndGlyphs" style="fill:#4F4F4F;"><tspan y="17" x="11" text-anchor="middle" textLength="12">JK</tspan></text></g><g transform="translate(-1165 -861.9609375)"><rect x="0" y="0" width="58" height="28" rx="10" ry="10" style="fill:#E0E0E0;stroke:#707070;stroke-width:1px;"/><text font-family="NotoSans, Arial, sans-serif" font-size="12" font-weight="bold" lengthAdjust="spacingAndGlyphs" style="fill:#4F4F4F;"><tspan y="17" x="29" text-anchor="middle" textLength="48">No_Telp</tspan></text></g><g transform="translate(-1161 -813.9609375)"><rect x="0" y="0" width="54" height="28" rx="10" ry="10" style="fill:#E0E0E0;stroke:#707070;stroke-width:1px;"/><text font-family="NotoSans, Arial, sans-serif" font-size="12" font-weight="bold" lengthAdjust="spacingAndGlyphs" style="fill:#4F4F4F;"><tspan y="17" x="27" text-anchor="middle" textLength="44">Alamat</tspan></text></g><g transform="translate(-1229 -765.9609375)"><rect x="0" y="0" width="122" height="28" rx="10" ry="10" style="fill:#E0E0E0;stroke:#707070;stroke-width:1px;"/><text font-family="NotoSans, Arial, sans-serif" font-size="12" font-weight="bold" lengthAdjust="spacingAndGlyphs" style="fill:#4F4F4F;"><tspan y="17" x="61" text-anchor="middle" textLength="112">Kode_Jurusan_Mhs</tspan></text></g><g transform="translate(-251.0234375 -843.9296875)"><rect x="0" y="0" width="114" height="28" rx="10" ry="10" style="fill:#E0E0E0;stroke:#707070;stroke-width:1px;"/><text font-family="NotoSans, Arial, sans-serif" font-size="12" font-weight="bold" lengthAdjust="spacingAndGlyphs" style="fill:#4F4F4F;"><tspan y="17" x="57" text-anchor="middle" textLength="104">Kode_Matakuliah</tspan></text></g><g transform="translate(-381.015625 -763.9609375)"><rect x="0" y="0" width="120" height="28" rx="10" ry="10" style="fill:#E0E0E0;stroke:#707070;stroke-width:1px;"/><text font-family="NotoSans, Arial, sans-serif" font-size="12" font-weight="bold" lengthAdjust="spacingAndGlyphs" style="fill:#4F4F4F;"><tspan y="17" x="60" text-anchor="middle" textLength="110">Nama_Matakuliah</tspan></text></g><g transform="translate(-381.015625 -715.9609375)"><rect x="0" y="0" width="32" height="28" rx="10" ry="10" style="fill:#E0E0E0;stroke:#707070;stroke-width:1px;"/><text font-family="NotoSans, Arial, sans-serif" font-size="12" font-weight="bold" lengthAdjust="spacingAndGlyphs" style="fill:#4F4F4F;"><tspan y="17" x="16" text-anchor="middle" textLength="22">SKS</tspan></text></g><g transform="translate(-460.015625 -1081.96875)"><rect x="0" y="0" width="56" height="28" rx="10" ry="10" style="fill:#E0E0E0;stroke:#707070;stroke-width:1px;"/><text font-family="NotoSans, Arial, sans-serif" font-size="12" font-weight="bold" lengthAdjust="spacingAndGlyphs" style="fill:#4F4F4F;"><tspan y="17" x="28" text-anchor="middle" textLength="46">Id_Nilai</tspan></text></g><g transform="translate(-460.015625 -1033.96875)"><rect x="0" y="0" width="69" height="28" rx="10" ry="10" style="fill:#E0E0E0;stroke:#707070;stroke-width:1px;"/><text font-family="NotoSans, Arial, sans-serif" font-size="12" font-weight="bold" lengthAdjust="spacingAndGlyphs" style="fill:#4F4F4F;"><tspan y="17" x="35" text-anchor="middle" textLength="59">NIM_Nilai</tspan></text></g><g transform="translate(-460.015625 -985.96875)"><rect x="0" y="0" width="147" height="28" rx="10" ry="10" style="fill:#E0E0E0;stroke:#707070;stroke-width:1px;"/><text font-family="NotoSans, Arial, sans-serif" font-size="12" font-weight="bold" lengthAdjust="spacingAndGlyphs" style="fill:#4F4F4F;"><tspan y="17" x="74" text-anchor="middle" textLength="137">Kode_Matakuliah_Nilai</tspan></text></g><g transform="translate(-460.015625 -937.96875)"><rect x="0" y="0" width="38" height="28" rx="10" ry="10" style="fill:#E0E0E0;stroke:#707070;stroke-width:1px;"/><text font-family="NotoSans, Arial, sans-serif" font-size="12" font-weight="bold" lengthAdjust="spacingAndGlyphs" style="fill:#4F4F4F;"><tspan y="17" x="19" text-anchor="middle" textLength="28">Nilai</tspan></text></g><g transform="translate(-1134.4 -1231.2)"><rect x="0" y="0" width="99" height="28" rx="10" ry="10" style="fill:#E0E0E0;stroke:#707070;stroke-width:1px;"/><text font-family="NotoSans, Arial, sans-serif" font-size="12" font-weight="bold" lengthAdjust="spacingAndGlyphs" style="fill:#4F4F4F;"><tspan y="17" x="50" text-anchor="middle" textLength="89">Kode_Ruangan</tspan></text></g><g transform="translate(-1140.4 -1183.2)"><rect x="0" y="0" width="105" height="28" rx="10" ry="10" style="fill:#E0E0E0;stroke:#707070;stroke-width:1px;"/><text font-family="NotoSans, Arial, sans-serif" font-size="12" font-weight="bold" lengthAdjust="spacingAndGlyphs" style="fill:#4F4F4F;"><tspan y="17" x="53" text-anchor="middle" textLength="95">Nama_Ruangan</tspan></text></g><g transform="translate(-412 -615.6666259765625)"><rect x="0" y="0" width="55" height="28" rx="10" ry="10" style="fill:#E0E0E0;stroke:#707070;stroke-width:1px;"/><text font-family="NotoSans, Arial, sans-serif" font-size="12" font-weight="bold" lengthAdjust="spacingAndGlyphs" style="fill:#4F4F4F;"><tspan y="17" x="28" text-anchor="middle" textLength="45">Id_User</tspan></text></g><g transform="translate(-414 -546.6666259765625)"><rect x="0" y="0" width="124" height="28" rx="10" ry="10" style="fill:#E0E0E0;stroke:#707070;stroke-width:1px;"/><text font-family="NotoSans, Arial, sans-serif" font-size="12" font-weight="bold" lengthAdjust="spacingAndGlyphs" style="fill:#4F4F4F;"><tspan y="17" x="62" text-anchor="middle" textLength="114">Id_Usergroup_User</tspan></text></g><g transform="translate(-431 -465.33331298828125)"><rect x="0" y="0" width="72" height="28" rx="10" ry="10" style="fill:#E0E0E0;stroke:#707070;stroke-width:1px;"/><text font-family="NotoSans, Arial, sans-serif" font-size="12" font-weight="bold" lengthAdjust="spacingAndGlyphs" style="fill:#4F4F4F;"><tspan y="17" x="36" text-anchor="middle" textLength="62">Username</tspan></text></g><g transform="translate(-442 -403.33331298828125)"><rect x="0" y="0" width="68" height="28" rx="10" ry="10" style="fill:#E0E0E0;stroke:#707070;stroke-width:1px;"/><text font-family="NotoSans, Arial, sans-serif" font-size="12" font-weight="bold" lengthAdjust="spacingAndGlyphs" style="fill:#4F4F4F;"><tspan y="17" x="34" text-anchor="middle" textLength="58">Password</tspan></text></g><g transform="translate(-459 -336.33331298828125)"><rect x="0" y="0" width="37" height="28" rx="10" ry="10" style="fill:#E0E0E0;stroke:#707070;stroke-width:1px;"/><text font-family="NotoSans, Arial, sans-serif" font-size="12" font-weight="bold" lengthAdjust="spacingAndGlyphs" style="fill:#4F4F4F;"><tspan y="17" x="19" text-anchor="middle" textLength="27">Foto</tspan></text></g><g transform="translate(-248.015625 -308.30206298828125)"><rect x="0" y="0" width="91" height="28" rx="10" ry="10" style="fill:#E0E0E0;stroke:#707070;stroke-width:1px;"/><text font-family="NotoSans, Arial, sans-serif" font-size="12" font-weight="bold" lengthAdjust="spacingAndGlyphs" style="fill:#4F4F4F;"><tspan y="17" x="46" text-anchor="middle" textLength="81">Id_Usergroup</tspan></text></g><g transform="translate(-316.015625 -231.96875)"><rect x="0" y="0" width="115" height="28" rx="10" ry="10" style="fill:#E0E0E0;stroke:#707070;stroke-width:1px;"/><text font-family="NotoSans, Arial, sans-serif" font-size="12" font-weight="bold" lengthAdjust="spacingAndGlyphs" style="fill:#4F4F4F;"><tspan y="17" x="58" text-anchor="middle" textLength="105">Name_Usergroup</tspan></text></g></g></svg>